<?xml version="1.0" standalone="no"?>
<!DOCTYPE svg PUBLIC "-//W3C//DTD SVG 20010904//EN"
 "http://www.w3.org/TR/2001/REC-SVG-20010904/DTD/svg10.dtd">
<svg version="1.0" xmlns="http://www.w3.org/2000/svg"
 width="500.000000pt" height="500.000000pt" viewBox="0 0 500.000000 500.000000"
 preserveAspectRatio="xMidYMid meet">
<metadata>
Created by potrace 1.14, written by Peter Selinger 2001-2017
</metadata>
<g transform="translate(0.000000,500.000000) scale(0.100000,-0.100000)"
fill="#000000" stroke="none">
<path d="M0 2500 l0 -2500 2500 0 2500 0 0 2500 0 2500 -2500 0 -2500 0 0
-2500z m2730 2260 c308 -28 505 -80 765 -204 513 -245 955 -733 1160 -1281 50
-132 104 -352 110 -442 5 -89 -10 -97 -19 -11 -9 88 -71 333 -107 425 -37 94
-156 332 -213 425 -156 256 -445 553 -701 721 -221 144 -502 265 -715 306 -30
6 -79 15 -107 21 -114 21 -382 32 -527 20 -192 -15 -477 -68 -554 -103 -16 -8
-26 -7 -35 2 -6 7 -7 11 -2 10 6 -2 42 6 80 18 63 18 157 41 300 73 127 28
376 37 565 20z m-1090 -135 c47 -8 101 -20 120 -25 19 -6 68 -20 108 -30 159
-42 376 -142 537 -247 259 -170 447 -359 632 -638 100 -150 128 -203 114 -219
-7 -8 4 -45 34 -121 46 -115 140 -417 151 -483 l6 -37 -111 -73 c-61 -40 -127
-86 -146 -104 -21 -17 -40 -27 -44 -22 -5 5 -40 52 -78 104 -125 170 -186 224
-378 332 -94 53 -187 104 -207 114 -40 19 -49 34 -22 34 28 0 234 -109 349
-185 121 -80 189 -149 270 -275 26 -41 55 -83 63 -92 14 -17 16 -17 28 0 7 9
14 23 14 30 0 23 -41 74 -56 68 -7 -3 -16 -1 -19 4 -4 6 3 10 14 10 12 0 20 3
20 8 -4 22 3 31 17 25 13 -5 15 -2 9 17 -6 20 -5 22 11 16 16 -6 17 -5 6 6
-11 11 -16 9 -32 -12 -23 -30 -27 -14 -5 18 14 20 14 21 0 16 -10 -4 -15 0
-16 12 0 11 -19 34 -42 51 -70 54 -180 126 -193 126 -7 0 -10 6 -7 14 3 8 -3
13 -16 13 -12 0 -24 6 -27 14 -3 7 -29 26 -59 41 -30 15 -66 38 -80 51 -14 13
-29 24 -33 24 -4 0 -27 14 -52 30 -25 17 -61 38 -80 48 -19 9 -44 24 -54 34
-11 10 -27 18 -35 18 -9 0 -27 9 -41 20 -14 11 -30 20 -37 20 -24 0 -24 22 0
48 105 113 154 314 113 467 -17 65 -62 159 -83 176 -13 10 -12 6 3 -16 37 -52
75 -164 81 -233 10 -123 -35 -265 -108 -343 -19 -19 -33 -33 -32 -31 2 3 -2
11 -8 18 -8 10 -25 2 -77 -35 -89 -64 -162 -93 -242 -97 l-65 -3 55 10 c74 13
153 43 204 78 54 37 124 107 142 143 15 30 27 39 18 13 -11 -27 5 -16 21 15 9
17 11 30 5 30 -5 0 -1 9 10 20 19 19 29 57 12 46 -5 -3 -6 9 -4 26 3 21 7 26
13 17 5 -8 9 -9 9 -3 0 6 -3 13 -6 16 -3 3 -7 35 -8 70 -11 221 -166 397 -390
445 -59 12 -86 13 -161 3 -49 -7 -103 -18 -119 -26 -16 -8 -35 -14 -43 -14 -7
0 -13 -5 -13 -11 0 -5 -4 -8 -9 -4 -6 3 -15 -4 -21 -15 -6 -11 -15 -18 -21
-15 -5 4 -8 2 -7 -3 2 -5 -13 -22 -32 -38 -24 -19 -29 -21 -16 -6 27 31 15 36
-18 7 -53 -46 -42 -25 14 26 31 28 93 69 140 92 85 42 85 42 200 42 63 0 131
-3 150 -7 27 -6 24 -4 -10 8 -33 11 -74 14 -156 12 -103 -4 -116 -7 -189 -41
-73 -35 -172 -108 -203 -149 -15 -20 -37 -25 -25 -5 12 19 14 49 3 42 -6 -4
-7 1 -3 11 5 14 3 16 -11 11 -10 -4 -15 -3 -11 3 3 6 1 10 -5 10 -7 0 -10 6
-7 14 13 34 -38 4 -153 -87 -43 -34 -62 -46 -45 -28 27 29 223 193 293 246 15
11 77 58 137 105 61 48 128 98 150 113 22 15 35 27 29 27 -7 0 -62 -37 -124
-82 -193 -142 -235 -172 -221 -155 12 15 11 17 -3 17 -9 0 -16 5 -16 10 0 6
-7 10 -15 10 -7 0 -18 6 -22 13 -4 6 -24 21 -43 31 -19 11 -39 24 -45 28 -54
43 -151 97 -185 104 -8 1 -27 5 -42 8 -24 5 -30 0 -47 -32 -11 -20 -20 -33
-21 -29 0 4 9 25 20 47 21 42 54 56 185 79 128 23 294 21 445 -4z m107 -1 c-3
-3 -12 -4 -19 -1 -8 3 -5 6 6 6 11 1 17 -2 13 -5z m1643 -119 c78 -27 185 -82
295 -150 123 -75 255 -177 237 -183 -15 -5 -43 11 -137 78 -114 80 -214 140
-337 201 -60 30 -108 57 -108 61 0 10 1 10 50 -7z m74 -101 c3 -8 2 -12 -4 -9
-6 3 -10 10 -10 16 0 14 7 11 14 -7z m209 -91 c42 -25 77 -49 77 -54 0 -5 7
-9 15 -9 7 0 18 -6 22 -13 4 -7 19 -21 32 -30 23 -15 23 -16 3 -14 -12 0 -24
7 -26 13 -3 7 -18 15 -35 19 -17 4 -37 15 -45 26 -7 11 -20 19 -27 17 -8 -2
-13 3 -11 10 1 6 -5 12 -13 12 -13 0 -67 32 -85 50 -3 3 -25 12 -50 21 -25 9
-45 20 -45 25 0 5 -4 14 -7 20 -9 14 91 -34 195 -93z m-563 -78 c0 -8 -4 -15
-9 -15 -13 0 -22 16 -14 24 11 11 23 6 23 -9z m-1074 -98 c103 -52 174 -139
208 -256 19 -65 20 -162 2 -211 l-13 -35 -7 43 c-3 23 -9 60 -12 82 -10 66
-21 54 -26 -28 -3 -42 -13 -96 -23 -120 -23 -56 -28 -49 -9 13 30 98 -3 248
-70 318 -27 27 -43 36 -31 17 3 -6 -5 -10 -19 -10 l-24 0 20 -41 c25 -53 33
-132 19 -187 -15 -55 -73 -120 -130 -145 -65 -29 -174 -30 -226 -3 -22 11 -43
26 -47 31 -4 6 -8 6 -8 2 0 -14 -30 21 -30 35 0 8 -4 18 -9 24 -13 12 -31 95
-20 88 5 -3 9 -12 9 -20 0 -8 5 -14 10 -14 6 0 10 5 10 10 0 6 16 18 35 27 35
17 36 17 61 -9 26 -25 26 -26 10 -72 -23 -68 -21 -82 15 -95 94 -33 226 4 273
76 53 81 42 124 -38 143 -73 18 -109 32 -130 52 -20 18 -21 18 -25 1 -6 -31
-22 -45 -37 -32 -8 6 -14 19 -14 29 0 21 34 53 45 43 4 -5 5 -2 1 5 -4 7 -2
12 5 12 7 0 3 10 -9 23 -12 13 -22 35 -22 50 0 35 -30 36 -94 2 -26 -14 -44
-20 -40 -14 3 6 34 24 68 40 68 32 122 37 183 15 37 -13 40 -13 53 7 11 19 9
23 -15 43 -51 40 -150 56 -260 41 l-50 -6 50 24 c28 14 58 23 68 21 9 -2 15 0
12 4 -8 14 34 19 125 16 74 -3 94 -8 156 -39z m1849 13 c3 -5 1 -10 -4 -10 -6
0 -11 5 -11 10 0 6 2 10 4 10 3 0 8 -4 11 -10z m-2439 -97 c-14 -20 -26 -34
-26 -30 0 10 44 76 48 72 2 -2 -8 -21 -22 -42z m2776 -237 c24 -35 -224 221
-255 262 -11 15 37 -31 107 -102 69 -71 136 -143 148 -160z m-52 159 c13 -14
21 -25 18 -25 -2 0 -15 11 -28 25 -13 14 -21 25 -18 25 2 0 15 -11 28 -25z
m-2779 -26 c-5 -13 -10 -19 -10 -12 -1 15 10 45 15 40 3 -2 0 -15 -5 -28z
m-19 -133 c-3 -79 0 -117 12 -152 9 -26 14 -49 12 -51 -11 -11 -40 110 -40
167 -1 55 10 140 17 140 1 0 1 -47 -1 -104z m2928 -34 c0 -7 -5 -1 -53 59 -20
25 -37 50 -37 54 0 5 20 -18 45 -49 25 -32 45 -61 45 -64z m-3360 67 c-6 -11
-8 -34 -5 -52 43 -208 111 -422 175 -549 121 -245 319 -532 444 -645 53 -49
87 -69 70 -41 -10 17 10 3 96 -65 41 -33 75 -64 74 -68 -1 -5 -2 -21 -2 -35
l-2 -26 -27 18 c-61 39 -255 208 -329 287 -94 100 -229 286 -301 416 -103 187
-191 446 -223 654 -11 76 -11 80 11 103 28 29 33 30 19 3z m3004 -1 c16 -26
-4 -53 -39 -53 -19 0 -30 7 -36 22 -16 45 49 72 75 31z m-714 -144 c0 -8 -4
-12 -10 -9 -5 3 -10 10 -10 16 0 5 5 9 10 9 6 0 10 -7 10 -16z m1091 -29 c8
-16 6 -15 -10 4 -12 13 -21 28 -21 35 0 12 14 -5 31 -39z m-597 -6 c29 -23 35
-73 15 -112 l-12 -21 -8 22 c-5 12 -22 30 -39 41 -17 10 -31 21 -31 25 4 30 0
37 -19 31 -29 -9 -25 2 8 19 37 21 55 20 86 -5z m-384 -250 c178 -56 371 -212
494 -399 82 -125 202 -409 194 -461 -3 -18 -18 -8 -113 71 -123 103 -202 150
-289 175 -70 20 -165 16 -214 -9 -30 -16 -32 -16 -32 2 0 21 48 39 128 49 111
13 262 -50 397 -167 44 -38 81 -65 83 -61 5 14 -38 113 -71 166 -81 129 -163
228 -181 218 -6 -3 -8 -2 -3 2 10 12 -103 126 -117 118 -6 -3 -8 -2 -3 2 9 10
-22 47 -34 39 -5 -3 -9 0 -9 6 0 6 -5 8 -12 4 -8 -5 -9 -2 -4 12 4 10 4 16 1
12 -13 -12 -60 8 -60 27 0 10 -9 23 -19 29 -11 6 -46 28 -79 48 -33 21 -64 35
-70 31 -5 -3 -7 -1 -3 5 7 11 -90 52 -123 52 -16 0 -41 36 -41 59 0 11 103 -6
180 -30z m-1670 -67 c-10 -4 -106 44 -113 55 -3 5 23 -5 58 -22 35 -16 60 -31
55 -33z m2390 -54 c0 -6 -7 -5 -15 2 -8 7 -15 17 -15 22 0 6 7 5 15 -2 8 -7
15 -17 15 -22z m148 3 c8 -4 12 -19 10 -32 l-3 -24 -22 24 c-29 31 -18 54 15
32z m-791 -36 c0 -8 -4 -12 -9 -9 -5 3 -6 10 -3 15 9 13 12 11 12 -6z m28 -4
c3 -5 2 -12 -3 -15 -5 -3 -9 1 -9 9 0 17 3 19 12 6z m35 -21 c0 -5 -4 -10 -10
-10 -5 0 -10 5 -10 10 0 6 5 10 10 10 6 0 10 -4 10 -10z m1116 -132 c26 -76
58 -253 52 -289 -2 -16 -11 4 -24 56 -11 44 -33 127 -48 185 -14 58 -29 114
-32 125 -3 11 -8 31 -10 45 -8 40 35 -44 62 -122z m-1056 74 c0 -5 -7 -9 -15
-9 -8 0 -15 4 -15 9 0 4 7 8 15 8 8 0 15 -4 15 -8z m-1181 -46 c15 -59 13 -80
-3 -36 -24 65 -27 80 -18 80 5 0 15 -20 21 -44z m61 -18 c0 -3 38 -44 84 -90
285 -282 576 -606 576 -641 0 -24 -298 294 -551 588 -47 55 -100 115 -118 134
-36 38 -39 46 -11 29 11 -7 20 -16 20 -20z m170 -85 c101 -48 189 -112 261
-191 68 -74 291 -371 293 -389 1 -13 -50 -52 -57 -43 -45 55 -137 180 -152
206 -11 19 -24 34 -30 34 -12 0 -475 462 -475 474 0 4 17 -5 38 -21 20 -16 75
-47 122 -70z m1970 73 c0 -3 -4 -8 -10 -11 -5 -3 -10 -1 -10 4 0 6 5 11 10 11
6 0 10 -2 10 -4z m-3610 -16 c0 -5 -4 -10 -10 -10 -5 0 -10 5 -10 10 0 6 5 10
10 10 6 0 10 -4 10 -10z m3628 -77 c0 -10 3 -33 5 -50 3 -18 2 -35 -3 -38 -5
-3 -7 4 -5 15 2 11 -3 27 -11 35 -12 12 -12 15 -2 16 9 0 9 2 1 5 -7 3 -9 12
-6 20 7 20 22 18 21 -3z m-1548 -211 c0 -4 -11 -12 -25 -18 -23 -11 -24 -11
-8 12 13 21 33 25 33 6z m343 -53 c10 -28 17 -55 17 -60 0 -5 -27 -22 -59 -38
l-59 -30 -6 37 c-14 77 -11 75 -74 37 -45 -28 -51 -30 -27 -9 48 41 159 113
176 114 11 0 22 -17 32 -51z m1404 -21 c-3 -8 -6 -5 -6 6 -1 11 2 17 5 13 3
-3 4 -12 1 -19z m-1359 -113 c37 -53 39 -62 13 -70 -10 -3 -59 -34 -107 -70
-73 -52 -91 -61 -98 -48 -6 11 2 25 25 50 24 25 28 32 12 24 -17 -8 -22 -8
-27 4 -3 8 -16 15 -28 15 -21 1 -20 3 12 31 40 34 149 109 159 109 4 0 22 -20
39 -45z m977 -66 c-6 -9 -35 -1 -35 10 0 4 3 11 7 14 8 9 34 -13 28 -24z
m-952 -39 c-3 -11 0 -27 7 -35 10 -12 8 -21 -10 -50 -12 -20 -21 -37 -19 -39
2 -1 47 -21 99 -44 52 -24 140 -72 195 -108 99 -64 101 -73 10 -47 -10 3 10
-18 45 -48 81 -67 239 -229 282 -289 l33 -45 -83 58 c-45 32 -89 60 -97 64 -9
3 32 -71 91 -163 58 -93 107 -181 108 -196 2 -21 -1 -25 -11 -16 -10 8 -10 14
-3 23 8 9 8 15 0 20 -6 4 -9 1 -8 -6 7 -28 -23 -17 -53 21 -18 22 -47 52 -65
65 l-33 25 19 -42 c10 -24 35 -99 55 -168 52 -180 148 -412 219 -532 37 -63
29 -82 -15 -38 -31 32 -78 69 -179 141 -47 34 -70 45 -43 21 16 -14 19 -22 10
-31 -8 -8 -8 -11 1 -11 6 0 16 -9 22 -20 21 -39 2 -29 -215 120 -49 34 -126
82 -170 108 -44 25 -106 63 -137 84 -31 21 -61 38 -67 38 -5 0 -60 48 -122
107 -133 128 -147 140 -145 115 0 -10 -6 -17 -16 -16 -11 1 -15 -5 -12 -19 4
-24 12 -33 21 -23 4 4 2 11 -6 15 -10 6 -9 10 4 14 9 4 13 3 10 -3 -3 -6 -1
-10 6 -10 7 0 5 -8 -7 -21 -12 -13 -15 -23 -7 -27 15 -10 28 -92 14 -92 -6 0
-16 12 -21 26 -6 14 -39 76 -75 139 -71 124 -135 277 -135 325 0 36 -3 36 -46
10 -31 -20 -33 -20 -42 -3 -10 17 -11 17 -29 0 -22 -19 -53 -23 -53 -5 0 19
52 80 60 71 5 -4 10 -17 12 -27 3 -17 10 -14 50 25 26 24 70 64 98 89 28 25
65 58 82 73 l31 28 56 -54 c91 -88 221 -181 221 -158 0 20 -62 168 -105 248
l-43 82 89 87 c49 48 89 91 89 96 0 11 -74 -37 -137 -90 -29 -24 -53 -39 -53
-33 0 6 11 18 25 27 14 9 25 22 25 30 0 13 42 47 130 104 25 16 46 30 47 30 0
0 -1 -9 -4 -20z m-2598 -20 c3 -5 1 -10 -4 -10 -6 0 -11 5 -11 10 0 6 2 10 4
10 3 0 8 -4 11 -10z m2182 -72 c43 -42 73 -56 73 -35 0 15 61 57 82 57 15 0
48 -40 48 -58 0 -5 -19 -22 -42 -37 l-41 -27 -17 23 c-18 23 -50 35 -50 17 0
-5 9 -12 20 -15 11 -3 17 -9 14 -14 -3 -5 -1 -9 5 -9 5 0 47 -54 92 -119 91
-131 118 -156 45 -42 -47 72 -54 91 -36 91 18 0 83 -117 121 -217 l10 -28 -25
24 c-20 18 -23 27 -14 33 10 6 9 8 -3 8 -10 0 -30 15 -47 34 -17 19 -34 32
-38 28 -4 -4 -4 -1 0 6 5 8 -19 47 -65 105 -40 51 -76 93 -80 95 -12 5 -111
122 -103 122 5 0 27 -19 51 -42z m1760 -81 c-13 -202 -71 -464 -145 -647 -43
-105 -94 -212 -99 -206 -2 2 3 18 11 34 27 53 102 254 129 347 25 83 59 276
87 488 7 48 15 87 18 87 3 0 2 -46 -1 -103z m-907 63 c0 -5 -5 -10 -11 -10 -5
0 -7 5 -4 10 3 6 8 10 11 10 2 0 4 -4 4 -10z m-2460 -29 c0 -14 -18 -23 -30
-16 -6 4 -8 11 -5 16 8 12 35 12 35 0z m-550 -51 c7 -12 7 -26 2 -36 -8 -14
-10 -14 -25 1 -9 9 -26 17 -37 18 -20 1 -27 17 -13 30 15 15 63 6 73 -13z
m2337 -30 c6 -16 10 -30 7 -30 -2 0 -10 14 -19 30 -9 17 -12 30 -7 30 4 0 13
-13 19 -30z m1454 -27 c-12 -20 -14 -14 -5 12 4 9 9 14 11 11 3 -2 0 -13 -6
-23z m-1596 -63 c-10 -16 -96 -72 -102 -67 -18 18 28 63 60 58 4 -1 7 3 7 7 0
4 9 8 20 9 11 1 18 -2 15 -7z m-626 -256 c-36 -70 -39 -81 -39 -160 0 -112 21
-170 107 -290 145 -204 143 -208 -54 -114 -284 135 -499 336 -576 540 l-17 45
20 -24 c11 -13 20 -29 20 -37 0 -8 33 -60 74 -116 71 -98 141 -174 196 -211
157 -108 234 -155 316 -193 53 -25 99 -43 102 -40 3 3 -29 41 -71 85 -82 86
-106 125 -132 216 -33 112 -3 286 62 357 33 37 30 16 -8 -58z m-1249 -40 c0
-9 -7 -14 -17 -12 -25 5 -28 28 -4 28 12 0 21 -6 21 -16z m3104 -109 c3 -8 1
-15 -5 -15 -6 0 -17 7 -25 15 -14 13 -13 15 4 15 11 0 22 -7 26 -15z m-2707
-300 c0 -8 -4 -12 -9 -9 -4 3 -8 9 -8 15 0 5 4 9 8 9 5 0 9 -7 9 -15z m1157
-191 c4 -10 1 -14 -6 -12 -15 5 -23 28 -10 28 5 0 13 -7 16 -16z m-773 -83
c42 -42 41 -105 -1 -146 -16 -16 -33 -26 -36 -22 -3 3 3 12 15 19 25 15 27 28
6 28 -9 0 -34 12 -56 26 -39 24 -41 28 -36 61 l6 36 -24 -23 c-34 -32 -33 -79
1 -119 14 -17 21 -31 16 -31 -24 0 -52 53 -52 97 0 93 97 137 161 74z m1037
-114 c2 -11 -3 -17 -17 -17 -23 0 -35 15 -26 31 10 15 39 6 43 -14z m-453 -47
c3 -6 -1 -13 -10 -16 -19 -8 -30 0 -20 15 8 14 22 14 30 1z m-638 -16 c-3 -3
-12 -4 -19 -1 -8 3 -5 6 6 6 11 1 17 -2 13 -5z m2123 -4 c0 -5 -2 -10 -4 -10
-3 0 -8 5 -11 10 -3 6 -1 10 4 10 6 0 11 -4 11 -10z m-150 -70 c0 -15 -37 -12
-43 4 -3 8 -3 17 0 20 8 7 43 -12 43 -24z m-335 -130 c3 -5 -1 -10 -9 -10 -9
0 -16 5 -16 10 0 6 4 10 9 10 6 0 13 -4 16 -10z m834 -145 c7 3 8 0 5 -9 -8
-20 -7 -20 -30 6 -14 17 -15 20 -2 9 9 -7 22 -10 27 -6z m-1350 -61 c48 -61 4
-154 -73 -154 -78 0 -100 97 -34 153 42 35 80 35 107 1z m-1453 -62 c-5 -4
-66 26 -66 33 0 3 16 -3 35 -12 19 -9 33 -18 31 -21z"/>
<path d="M2265 4110 c10 -11 20 -20 23 -20 3 0 -3 9 -13 20 -10 11 -20 20 -23
20 -3 0 3 -9 13 -20z"/>
<path d="M3176 2986 c3 -9 13 -16 22 -16 8 0 13 1 11 3 -2 1 -12 9 -22 16 -15
12 -17 12 -11 -3z"/>
<path d="M3120 2896 c0 -2 8 -10 18 -17 15 -13 16 -12 3 4 -13 16 -21 21 -21
13z"/>
<path d="M1828 4163 c12 -2 32 -2 45 0 12 2 2 4 -23 4 -25 0 -35 -2 -22 -4z"/>
<path d="M3890 3810 c0 -5 10 -10 23 -10 18 0 19 2 7 10 -19 13 -30 13 -30 0z"/>
<path d="M3508 3213 c7 -3 16 -2 19 1 4 3 -2 6 -13 5 -11 0 -14 -3 -6 -6z"/>
<path d="M2920 2671 c0 -5 5 -13 10 -16 6 -3 10 -2 10 4 0 5 -4 13 -10 16 -5
3 -10 2 -10 -4z"/>
<path d="M3131 1504 c0 -11 3 -14 6 -6 3 7 2 16 -1 19 -3 4 -6 -2 -5 -13z"/>
<path d="M3161 1434 c0 -11 3 -14 6 -6 3 7 2 16 -1 19 -3 4 -6 -2 -5 -13z"/>
<path d="M3965 1060 c-3 -5 -1 -10 4 -10 6 0 11 5 11 10 0 6 -2 10 -4 10 -3 0
-8 -4 -11 -10z"/>
<path d="M2937 613 c-16 -15 -6 -62 15 -77 31 -22 75 -20 87 3 12 21 1 34 -36
45 -11 4 -27 13 -33 21 -14 16 -23 19 -33 8z"/>
</g>
</svg>
